<svg id="Layer_1" data-name="Layer 1" xmlns="http://www.w3.org/2000/svg" xmlns:xlink="http://www.w3.org/1999/xlink" viewBox="0 0 239 46.9"><defs><style>.cls-1{fill:#212549;}.cls-2{fill:#f7b912;}.cls-3{fill:#2482c5;}.cls-4{fill:url(#linear-gradient);}.cls-5{fill:url(#linear-gradient-2);}</style><linearGradient id="linear-gradient" x1="2045.18" y1="1891.47" x2="2092.2" y2="1795.07" gradientTransform="translate(-407.7 -342.57) scale(0.2)" gradientUnits="userSpaceOnUse"><stop offset="0" stop-color="#0c3037"/><stop offset="1" stop-color="#2482c5"/></linearGradient><linearGradient id="linear-gradient-2" x1="2134.69" y1="1828.43" x2="2197" y2="1920.81" xlink:href="#linear-gradient"/></defs><g id="ARBEIDSLAG_copy" data-name="ARBEIDSLAG copy"><g id="GEEKS"><g id="Layer_1-2" data-name="Layer 1-2"><path class="cls-1" d="M202.4,12.4a3.2,3.2,0,0,1,0,6.4h0a3.16,3.16,0,0,1-3.2-3.2,3.22,3.22,0,0,1,3.2-3.2Zm0,5.7a2.5,2.5,0,1,0-2.5-2.5,2.44,2.44,0,0,0,2.3,2.5Zm1.6-1.3v.5l-.1.1h-.3l-.2-.1-1-1.2-.2-.1h-.6l-.1.1v1.2l-.1.1h-.5l-.1-.1V13.9l.1-.1h1.8a1.11,1.11,0,0,1,1.2,1v.1a1,1,0,0,1-.7,1V16Zm-1.1-2.3h-1.1l-.1.1v.7l.1.1h1.1a.46.46,0,0,0,.5-.4v-.1A.66.66,0,0,0,202.9,14.5Z"/><g id="Layer_2" data-name="Layer 2"><polygon class="cls-2" points="30.4 17.6 40.6 11.7 20.4 0 0 11.7 0 35.1 20.4 46.9 40.6 35.1 30.4 17.6"/><polygon class="cls-3" points="0 35.1 10.2 29.3 20.4 46.9 0 35.1"/><polygon class="cls-3" points="0 11.7 20.4 0 40.6 11.7 20.4 23.4 0 11.7"/><polygon class="cls-4" points="0 11.7 20.4 23.4 0 35.1 0 11.7"/><polygon class="cls-5" points="30.4 17.6 40.6 35.1 20.4 46.9 10.2 29.3 30.4 17.6"/></g></g></g></g><g id="LAND"><path class="cls-3" d="M203.7,34.7h-3.1l-.3-.3V31.3l.3-.3h3.1l.3.3v3.1Z"/><path class="cls-3" d="M221.4,34.7h-2.5l-.3-.3v-9c0-1.5-.3-3.7-3.1-3.7s-4,1.5-4,5.3v7.4l-.3.3h-2.5l-.3-.3V19.5l.3-.3h2.2l.3.3.3,1.2h.3a4.47,4.47,0,0,1,4-1.9c4.3,0,5.9,2.8,5.9,6.5v9Z"/><path class="cls-3" d="M231.6,18.9c4.7,0,7.4,3.1,7.4,8.1s-2.8,8.1-7.4,8.1-7.4-3.1-7.4-8.1S227,18.9,231.6,18.9Zm0,13.3c2.8,0,4.3-1.9,4.3-5.3s-1.5-5.3-4.3-5.3-4.3,1.9-4.3,5.3S228.8,32.2,231.6,32.2Z"/></g><path d="M59.77,17.18a1.49,1.49,0,0,1-.56-.12,14.05,14.05,0,0,0-4.8-.68,22.49,22.49,0,0,0-2.27.14c-.86.1-1.83.24-2.9.44l0,6.32a18.68,18.68,0,0,1,4.25-.74,42,42,0,0,1,4.67.26,1.35,1.35,0,0,1,1.37,1.49,1.52,1.52,0,0,1-.42,1.1,1.43,1.43,0,0,1-1,.43c-.51,0-1.27-.05-2.29-.13s-1.78-.14-2.28-.14a23.68,23.68,0,0,0-4.31.85L49,36.48a1.48,1.48,0,0,1-.41,1.06,1.38,1.38,0,0,1-1,.44,1.4,1.4,0,0,1-1-.44,1.45,1.45,0,0,1-.42-1.06q0-2.88.11-8.66t.11-8.67c0-.43,0-1.07,0-1.94s0-1.51,0-1.94a1.52,1.52,0,0,1,.4-1.08,1.34,1.34,0,0,1,1-.44,1.5,1.5,0,0,1,.86.26c1.21-.21,2.3-.37,3.27-.47a22.72,22.72,0,0,1,2.55-.16,17.54,17.54,0,0,1,3.85.49c2,.44,2.94,1,2.94,1.75a1.54,1.54,0,0,1-.38,1A1.32,1.32,0,0,1,59.77,17.18Z"/><path d="M75.76,27.87c0,.7,0,1.76,0,3.16s0,2.46,0,3.17c0,.21,0,.54.06,1s.05.77.05,1a1.37,1.37,0,0,1-.43,1,1.45,1.45,0,0,1-1,.41c-.75,0-1.23-.47-1.43-1.4a9,9,0,0,1-4.22,1,5.62,5.62,0,0,1-3.18-.85,3.83,3.83,0,0,1-1.66-2.74,48.28,48.28,0,0,1-.57-6.92,27.78,27.78,0,0,1,.44-4.57,1.31,1.31,0,0,1,1.39-1.27,1.49,1.49,0,0,1,1.06.4,1.36,1.36,0,0,1,.42,1,17.39,17.39,0,0,1-.21,2.16,17.35,17.35,0,0,0-.21,2.25c0,1.63,0,3,.16,4.19a15.09,15.09,0,0,0,.48,2.8,4.49,4.49,0,0,0,.95.4,3,3,0,0,0,.93.14,14.89,14.89,0,0,0,4.14-.63v-3l0-2.84a46.22,46.22,0,0,1,.28-5.5,1.32,1.32,0,0,1,1.42-1.34,1.42,1.42,0,0,1,1,.41,1.24,1.24,0,0,1,.4,1Z"/><path d="M83.13,24.91l-.22,7.28c0,.77,0,1.9-.11,3.4-.1,1-.58,1.46-1.44,1.46s-1.44-.49-1.44-1.49c0-1.18.06-3,.17-5.33s.16-4.14.16-5.32c0-1.54,0-3.31.07-5.3s.07-3.75.07-5.29a1.45,1.45,0,1,1,2.89,0c0,1.54,0,3.31-.07,5.29S83.13,23.37,83.13,24.91Z"/><path d="M91.35,24.91l-.22,7.28c0,.77,0,1.9-.12,3.4-.09,1-.57,1.46-1.43,1.46s-1.44-.49-1.44-1.49c0-1.18.06-3,.16-5.33s.16-4.14.16-5.32c0-1.54,0-3.31.08-5.3s.07-3.75.07-5.29a1.45,1.45,0,1,1,2.89,0c0,1.54,0,3.31-.08,5.29S91.35,23.37,91.35,24.91Z"/><path d="M105.74,25.14a1.2,1.2,0,0,1-1.13-.54,4.71,4.71,0,0,1-.38-1.58c-.74.19-1.86.53-3.39,1s-2.36,1.39-2.37,2.31a4.07,4.07,0,0,0,.86.23,14.33,14.33,0,0,1,5,1.66,5,5,0,0,1,2.39,4.45,4,4,0,0,1-2.06,3.61,8.6,8.6,0,0,1-4.34,1,10.44,10.44,0,0,1-3.66-.64c-1.51-.55-2.26-1.31-2.26-2.29a1.39,1.39,0,0,1,.46-1,1.46,1.46,0,0,1,1-.44,2,2,0,0,1,1.17.7,3.35,3.35,0,0,0,1.58.56,9.4,9.4,0,0,0,1.66.17,7.17,7.17,0,0,0,2.17-.29c.91-.28,1.36-.73,1.36-1.35,0-1.32-.93-2.22-2.78-2.69l-1.53-.34a7.76,7.76,0,0,1-2.76-1A2.78,2.78,0,0,1,95.6,26.2a4.48,4.48,0,0,1,2.88-4.37,24.41,24.41,0,0,1,2.82-.94,23.18,23.18,0,0,0,2.77-.93,3.11,3.11,0,0,1,1.3-.26,1.36,1.36,0,0,1,1,.41,1.44,1.44,0,0,1,.4,1.06,6.53,6.53,0,0,0,.19,1.25,6.35,6.35,0,0,1,.18,1.25,1.44,1.44,0,0,1-.4,1.06A1.36,1.36,0,0,1,105.74,25.14Z"/><path d="M120.25,23.94l-.72,0-.73,0c-.22,0-.89.08-2,.22l.28,8.66v.65l0,.74c0,2.14-.48,3.21-1.54,3.21a1.52,1.52,0,0,1-1-.38,1.2,1.2,0,0,1-.43-.95c0-.37,0-.93,0-1.67s0-1.3,0-1.67l-.3-8.56c-.71,0-1.79-.11-3.25-.25a1.32,1.32,0,0,1-1.3-1.45,1.49,1.49,0,0,1,.39-1.06,1.31,1.31,0,0,1,1-.43l3.08.25c0-.5,0-1.17-.07-2s-.06-1.44-.06-1.81a1.36,1.36,0,0,1,.42-1,1.46,1.46,0,0,1,1-.4c.88,0,1.39.72,1.54,2.15,0,.36,0,.8,0,1.31l0,.85,0,.9c1.21-.15,1.91-.23,2.08-.23a8.1,8.1,0,0,1,2,.15,1.28,1.28,0,0,1,.9,1.37,1.52,1.52,0,0,1-.4,1.07A1.42,1.42,0,0,1,120.25,23.94Z"/><path d="M131.43,37.1a8.22,8.22,0,0,1-5.36-1.66,6.23,6.23,0,0,1-2.24-5.12,10.7,10.7,0,0,1,1.84-6.39A6.26,6.26,0,0,1,131,21.12a8.36,8.36,0,0,1,4,.82,3.3,3.3,0,0,1,1.89,3.1,3.35,3.35,0,0,1-1.65,2.67,23.74,23.74,0,0,1-3.11,1.64L126.54,32a5.25,5.25,0,0,0,2,1.83,6.23,6.23,0,0,0,2.85.62,9.17,9.17,0,0,0,2.37-.38A3.83,3.83,0,0,0,136,32.8c.33-.52.69-.79,1.07-.79a1.27,1.27,0,0,1,.91.39,1.22,1.22,0,0,1,.41.9c0,1.09-.88,2-2.63,2.8A10.61,10.61,0,0,1,131.43,37.1ZM131,23.75a3.73,3.73,0,0,0-3,1.39,9.32,9.32,0,0,0-1.77,4.16l4.49-2.13a18.9,18.9,0,0,0,3.78-2.25A5,5,0,0,0,131,23.75Z"/><path d="M152.26,37.46a1.33,1.33,0,0,1-1.42-1.37l-.41-3.21a26.41,26.41,0,0,1-.21-3.21c0-.27,0-.74.05-1.39s0-1.12,0-1.39c0-2.11-.39-3.17-1.17-3.17a4.08,4.08,0,0,0-3.13,2,13.32,13.32,0,0,0-2.11,4.48c0,.39-.07.86-.13,1.44a11.65,11.65,0,0,0-.09,1.42q0,.43.09,1.32c.05.59.08,1,.08,1.32a1.46,1.46,0,0,1-.4,1.07,1.51,1.51,0,0,1-2.07,0,1.46,1.46,0,0,1-.4-1.07c0-.3,0-.73-.09-1.32a12,12,0,0,1-.1-1.32c0-1,.07-2.4.22-4.18s.21-3.18.21-4.18c0-.32,0-.78,0-1.4s-.06-1.07-.06-1.39a1.36,1.36,0,0,1,.42-1,1.44,1.44,0,0,1,1-.4c.89,0,1.39.63,1.47,1.9l0,1.72q2.46-3.28,5.05-3.29a3.3,3.3,0,0,1,3.27,2.07,10.8,10.8,0,0,1,.69,4.07v1.48l0,1.36a20.57,20.57,0,0,0,.32,3.15,20,20,0,0,1,.31,3.12,1.39,1.39,0,0,1-.42,1.05A1.41,1.41,0,0,1,152.26,37.46Z"/><path d="M170.22,23.49c-.12,1.43-.18,2.87-.18,4.31a43.32,43.32,0,0,0,.46,7.36c0,.14,0,.25,0,.34a1.26,1.26,0,0,1-.41,1,1.36,1.36,0,0,1-1,.38c-.6,0-1-.44-1.33-1.32a8,8,0,0,1-2.19,1.17,7,7,0,0,1-2.37.4,6.78,6.78,0,0,1-5-2,7.21,7.21,0,0,1-2.05-5.31,9.19,9.19,0,0,1,2.07-6.27,6.83,6.83,0,0,1,5.38-2.35,5.4,5.4,0,0,1,2.63.52l1.37,1q.21-6.16.49-8.3c.12-.87.57-1.31,1.33-1.31s1.33.48,1.33,1.43Q170.8,16.52,170.22,23.49Zm-6.51.38A4.56,4.56,0,0,0,160,25.33a6.65,6.65,0,0,0-1.23,4.38A4.51,4.51,0,0,0,160.13,33a4.27,4.27,0,0,0,3.14,1.36,4.38,4.38,0,0,0,2.08-.45A11.5,11.5,0,0,0,167,32.66a3,3,0,0,0,.42-.45l0-2.54,0-1.7,0-1.73a4.12,4.12,0,0,0-1.48-1.78A4,4,0,0,0,163.71,23.87Z"/><path d="M177.8,29.77c0,.59,0,1.47.06,2.63s0,2.05,0,2.63a1.46,1.46,0,0,1-.4,1.06,1.51,1.51,0,0,1-2.07,0A1.46,1.46,0,0,1,175,35c0-.58,0-1.46,0-2.63s-.06-2-.06-2.63c0-.91,0-2.06.15-3.43s.15-2.52.15-3.44a1.46,1.46,0,0,1,.4-1.07,1.39,1.39,0,0,1,1-.41,1.38,1.38,0,0,1,1,.41,1.47,1.47,0,0,1,.41,1.07c0,.92,0,2.07-.15,3.44S177.8,28.86,177.8,29.77Zm-.65-11.89a1.7,1.7,0,0,1-1.22-.5,1.67,1.67,0,0,1,0-2.4,1.7,1.7,0,0,1,1.22-.5,1.66,1.66,0,0,1,1.2.5,1.67,1.67,0,0,1,0,2.4A1.66,1.66,0,0,1,177.15,17.88Z"/><path d="M194.81,30.11,194.47,35a19.92,19.92,0,0,1-.6,4.79,6.44,6.44,0,0,1-2.11,3.5,8.13,8.13,0,0,1-5.08,1.37,16.49,16.49,0,0,1-3.26-.27c-1.24-.24-1.85-.75-1.85-1.52a1.14,1.14,0,0,1,1.27-1.31,10,10,0,0,1,1.76.26,12.25,12.25,0,0,0,2.73.23,4,4,0,0,0,3.88-2.73,16.47,16.47,0,0,0,.75-5.49,6,6,0,0,1-1.89,2.2,4.36,4.36,0,0,1-2.49.73A5.59,5.59,0,0,1,183.26,35a6.64,6.64,0,0,1-1.66-4.69,9,9,0,0,1,2.27-6.38,8.35,8.35,0,0,1,6.39-2.49,6.3,6.3,0,0,1,2.28.36,2.88,2.88,0,0,1,1.41,1q1.56,0,1.56,1.74a17.39,17.39,0,0,1-.3,2.79C195,28.7,194.85,29.62,194.81,30.11Zm-4.7-6.34a5.19,5.19,0,0,0-4.31,1.92,6.85,6.85,0,0,0-1.36,4.39,5.22,5.22,0,0,0,.81,3.19,2.8,2.8,0,0,0,2.41,1.07,3.81,3.81,0,0,0,2.87-1.67,6,6,0,0,0,1.44-3c.2-1.06.42-2.71.66-5a4.2,4.2,0,0,0-1.22-.67A3.82,3.82,0,0,0,190.11,23.77Z"/></svg>